<?xml version="1.0" encoding="UTF-8" standalone="no"?>
<svg
   version="1.0"
   width="396.8504pt"
   height="396.8504pt"
   viewBox="0 0 396.8504 396.8504"
   preserveAspectRatio="xMidYMid meet"
   id="svg95"
   sodipodi:docname="doutor.svg"
   inkscape:version="1.1 (c4e8f9e, 2021-05-24)"
   xmlns:inkscape="http://www.inkscape.org/namespaces/inkscape"
   xmlns:sodipodi="http://sodipodi.sourceforge.net/DTD/sodipodi-0.dtd"
   xmlns="http://www.w3.org/2000/svg"
   xmlns:svg="http://www.w3.org/2000/svg">
  <defs
     id="defs99" />
  <sodipodi:namedview
     id="namedview97"
     pagecolor="#323542"
     bordercolor="#666666"
     borderopacity="1.0"
     inkscape:pageshadow="2"
     inkscape:pageopacity="1"
     inkscape:pagecheckerboard="false"
     inkscape:document-units="pt"
     showgrid="false"
     inkscape:zoom="0.27130476"
     inkscape:cx="71.874891"
     inkscape:cy="245.11181"
     inkscape:window-width="1680"
     inkscape:window-height="997"
     inkscape:window-x="0"
     inkscape:window-y="25"
     inkscape:window-maximized="1"
     inkscape:current-layer="svg95"
     borderlayer="false"
     width="400pt"
     fit-margin-top="0"
     fit-margin-left="0"
     fit-margin-right="0"
     fit-margin-bottom="0" />
  <metadata
     id="metadata71">
Created by potrace 1.16, written by Peter Selinger 2001-2019
</metadata>
  <rect
     style="fill:#ffffff;fill-opacity:1;stroke-width:0.932751"
     id="rect1889"
     width="396.8504"
     height="396.8504"
     x="0"
     y="-3.5527137e-15"
     ry="29.771484" />
  <path
     d="m 90.08455,154.92314 c -12.500004,3.6 -16.800004,17 -15.700004,49.3 0.6,18.5 2.1,24.7 7.3,30.5 3.3,3.6 5.8,4.9 12.700004,6.4 l 2.7,0.6 v -44 l -0.36377,-43.4949 c 0,0 -3.21617,-0.28226 -6.63623,0.6949 z"
     id="path73"
     style="fill:#000000;stroke:none;stroke-width:0.1"
     sodipodi:nodetypes="cccccccc" />
  <path
     d="m 103.08455,197.62314 v 44.1 l 2.8,-0.6 c 10,-2.2 15,-6.7 17.9,-16.1 2.6,-8.3 3.22745,-46.31551 0.1,-54.4 -4.72911,-12.22479 -9.16089,-16.18939 -21.07508,-16.64154 z"
     id="path75"
     style="fill:#000000;stroke:none;stroke-width:0.1"
     sodipodi:nodetypes="ccccscc" />
  <path
     d="m 303.05392,141.33922 c -12.99441,-0.59591 -21.36207,10.71923 -30.67167,41.66808 -5.36056,17.7165 -5.92667,24.0702 -2.85974,31.23078 1.9722,4.46771 3.92371,6.50035 9.97904,10.13256 l 2.3653,1.43365 14.10122,-41.6792 13.73949,-41.52261 z"
     id="path73-7"
     style="fill:#ffb200;fill-opacity:1;stroke:none;stroke-width:0.1"
     sodipodi:nodetypes="cccccccc" />
  <path
     d="m 301.68364,185.95326 -14.13326,41.77392 2.8446,0.329 c 10.17761,1.12086 16.35605,-1.53937 22.11562,-9.51416 5.12286,-7.02896 18.13563,-40.32101 17.52896,-51.4986 -0.60667,-11.17759 -4.50449,-17.44846 -14.22265,-22.86409 z"
     id="path75-8"
     style="fill:#ffb200;fill-opacity:1;stroke:none;stroke-width:0.1"
     sodipodi:nodetypes="cccczcc" />
  <path
     d="m 198.88455,156.62314 c -2.8,2.5 -3.3,3.6 -3.3,7.4 0,5.5 3.1,9.3 8.2,10.3 l 3.3,0.6 v 23.7 c 0,26.3 0.9,31.7 5.7,36.3 3.6,3.4 8.6,5.8 11.8,5.8 h 2.5 v -43.5 -43.5 h -12.5 c -12.4,0 -12.5,0 -15.7,2.9 z"
     id="path77"
     style="fill:#000000;stroke:none;stroke-width:0.1" />
  <path
     d="m 233.08455,197.22314 v 43.5 h 2.3 c 3,-0.1 9.8,-3.3 11.9,-5.6 4.4,-4.9 4.8,-8.2 4.8,-34.7 v -25.4 l 3.8,-0.7 c 5.5,-0.8 8.7,-4.6 8.7,-10.3 0,-3.8 -0.5,-4.9 -3.3,-7.4 -3.2,-2.9 -3.3,-2.9 -15.7,-2.9 h -12.5 z"
     id="path79"
     style="fill:#000000;stroke:none;stroke-width:0.1" />
  <path
     d="m 339.08455,161.26248 c -0.0494,2.74765 0,35.46066 0,35.46066 v 35.76369 c 0,4.33149 9.04859,8.22953 13.4,8.23631 h 7.6 v -43.5 -43.5 h -8 c -8.59466,-0.28187 -12.95062,4.79169 -13,7.53934 z"
     id="path81"
     style="fill:#000000;stroke:none;stroke-width:0.1"
     sodipodi:nodetypes="zcscccccz" />
  <path
     d="m 366.28455,196.82314 0.3,43.4 h 9.8 c 13,0 12.7,0.5 12.7,-18.4 0,-17.2 -0.9,-21 -5.5,-24.9 l -3.5,-2.8 2.9,-1.7 c 4.4,-2.6 6.3,-7.6 6.3,-16.7 0.1,-14 -5.2,-20.6 -17.2,-21.7 l -6,-0.6 z"
     id="path83"
     style="fill:#000000;stroke:none;stroke-width:0.1" />
  <path
     d="m 14.384549,155.92314 c -4.2,2 -4.4,4.5 -4.1,44.2 0.3,44.2 -0.8,40.6 12.5,40.6 h 8.3 v -43 -43 l -7.2,0.1 c -4,0 -8.3,0.5 -9.5,1.1 z"
     id="path85"
     style="fill:#000000;stroke:none;stroke-width:0.1" />
  <path
     d="m 37.084549,197.62314 v 43.1 h 3 c 6.9,0 14.099997,-5.7 17.599997,-13.8 5.7,-13.2 5.9,-46.6 0.3,-59.1 -3.5,-8 -7.799997,-11.4 -16.199997,-12.6 l -4.7,-0.7 z"
     id="path87"
     style="fill:#000000;stroke:none;stroke-width:0.1" />
  <path
     d="m 166.08455,198.22314 v 43.7 l 3.8,-0.6 c 10.37258,-3.40735 17.58679,-6.88914 17.7,-16 v -33.3 c 0,-13.50817 -0.0357,-19.51743 -0.009,-27.66974 0.0269,-8.15231 -3.16355,-9.71895 -9.60335,-9.80288 l -11.88781,-0.0274 z"
     id="path91"
     style="fill:#000000;stroke:none;stroke-width:0.1"
     sodipodi:nodetypes="ccccszccc" />
  <path
     d="m 159.59458,198.22232 v 43.7 l -3.8,-0.6 c -10.37258,-3.40735 -17.58679,-6.88914 -17.7,-16 v -33.3 c 0,-13.50817 0.0357,-19.51743 0.009,-27.66974 -0.0269,-8.15231 3.16355,-9.71895 9.60335,-9.80288 l 11.88781,-0.0274 z"
     id="path91-0"
     style="fill:#000000;stroke:none;stroke-width:0.1"
     sodipodi:nodetypes="ccccszccc" />
</svg>
